<?xml version="1.0" encoding="utf-8"?>
<!-- Generator: Adobe Illustrator 24.2.1, SVG Export Plug-In . SVG Version: 6.00 Build 0)  -->
<svg version="1.1" id="Capa_1" xmlns="http://www.w3.org/2000/svg" xmlns:xlink="http://www.w3.org/1999/xlink" x="0px" y="0px"
	 viewBox="0 0 512 512" style="enable-background:new 0 0 512 512;" xml:space="preserve">
<style type="text/css">
	.st0{fill:#a58a7c}
</style>
<path class="st0" d="M419,413.9c-46.9,0-85-38.1-85-85c0-27.8,13.7-53.9,36.8-69.9l3.5-2.4l-27.8-59.5l-76.6,106.1l2,2.9
	c4.7,6.7,7.1,14.6,7.1,22.7c0,22.1-17.9,40-40,40c-16.8,0-31.8-10.7-37.5-26.7l-1.2-3.3h-27l-0.7,4.2c-6.9,41-42.1,70.8-83.6,70.8
	c-22.7,0-44.3-8.9-60.6-25C12,372.8,3,351.5,3,328.9s9-43.9,25.4-60c16.3-16.1,37.9-25,60.6-25c9.1,0,18.3,1.7,28.1,5.2l4,1.4
	l32.9-59.2v-47.4h-20c-5.5,0-10-4.5-10-10s4.5-10,10-10h90c5.5,0,10,4.5,10,10s-4.5,10-10,10h-50v40h166.3l-35.4-75.8
	c-1.5-3.1-1.2-6.7,0.6-9.6c1.8-2.9,5-4.6,8.4-4.6h77.6c16.4,0,30.5,9.5,36.8,24.7c6.3,15.3,3,31.9-8.6,43.5l-8.8,8.8
	c-1.9,1.9-4.4,2.9-7.1,2.9s-5.2-1-7.1-2.9c-1.9-1.9-2.9-4.4-2.9-7.1c0-2.7,1-5.2,2.9-7.1l8.8-8.8c5.8-5.8,7.5-14.2,4.3-21.8
	c-3.2-7.6-10.2-12.4-18.5-12.4h-61.9l62.8,134.5l4.1-1.1c8.4-2.3,15.6-3.4,22.4-3.4c22.7,0,44.3,8.9,60.6,25
	c16.4,16.1,25.4,37.5,25.4,60s-9,43.9-25.4,60C463.3,405,441.7,413.9,419,413.9z M377.8,279c-15.1,12.5-23.8,30.7-23.8,49.9
	c0,35.8,29.2,65,65,65c36.4,0,66-29.2,66-65c0-35.8-29.6-65-66-65c-3.7,0-7.5,0.4-11.8,1.2l-6.3,1.2l27.3,58.4
	c1.1,2.4,1.2,5.1,0.3,7.6s-2.7,4.5-5.2,5.6c-1.3,0.6-2.8,0.9-4.2,0.9c-3.9,0-7.4-2.3-9.1-5.8l-27.2-58.2L377.8,279z M89,263.9
	c-36.4,0-66,29.2-66,65s29.6,65,66,65c29.4,0,55.2-20.1,62.7-48.8l1.6-6.3H89c-3.6,0-6.8-1.8-8.6-4.8c-1.8-3-1.8-6.8-0.1-9.9
	l31.2-56.2l-6.2-1.6C99.2,264.6,94.1,263.9,89,263.9z M138.6,260.2l3.3,2.6c16.4,13.1,27.3,31.5,30.7,51.8l0.7,4.2h27l1.2-3.3
	c1.7-4.8,4.3-9.2,7.7-13l2.3-2.6L164,214.5L138.6,260.2z M106,318.9h47.3l-1.6-6.3c-3.1-11.8-9.3-22.4-18-30.7l-4.7-4.5L106,318.9z
	 M239,288.9c3.4,0,7,0.6,11.1,1.8l3.4,1l63.4-87.8H181l47.9,86.3l3.5-0.6C234.5,289.2,236.8,288.9,239,288.9z"/>
</svg>
