
<svg data-info="Created by Akheela from the Noun Project" xmlns="http://www.w3.org/2000/svg" xmlns:xlink="http://www.w3.org/1999/xlink" version="1.1" x="0px" y="0px" viewBox="-255 347 100 125" enable-background="new -255 347 100 100" xml:space="preserve"><g><path d="M-226.748,400.156h47.426l-24.608,24.608c-1.131,1.131-1.131,2.965,0,4.096l0.831,0.831c1.131,1.131,2.965,1.131,4.096,0   l27.764-27.764l0.002,0.002l4.927-4.926l-0.002-0.002l0.002-0.002l-4.927-4.926l-0.002,0.002l-27.764-27.764   c-1.131-1.131-2.965-1.131-4.096,0l-0.831,0.831c-1.131,1.131-1.131,2.965,0,4.096l24.608,24.608h-47.426   c-1.599,0-2.896,1.297-2.896,2.896v0.52C-229.644,398.86-228.348,400.156-226.748,400.156z"/><path d="M-239.992,363.461h-1.231c-1.362,0-2.465,1.104-2.465,2.465v62.147c0,1.362,1.104,2.465,2.465,2.465h1.231   c1.362,0,2.465-1.104,2.465-2.465v-62.147C-237.527,364.565-238.631,363.461-239.992,363.461z"/></g></svg>