<svg id="Capa_1" data-name="Capa 1" xmlns="http://www.w3.org/2000/svg" viewBox="0 0 512 512"><defs><style>.cls-1{fill:#a58a7c}</style></defs><path class="cls-1" d="M502.74,0H9.27A9.27,9.27,0,0,0,0,9.26V148.44a9.27,9.27,0,0,0,18.53,0V100.57l50.24,50.25L18.53,201.06V178.7A9.27,9.27,0,0,0,0,178.7v324A9.27,9.27,0,0,0,9.26,512H502.74a9.27,9.27,0,0,0,9.26-9.26V9.26A9.27,9.27,0,0,0,502.74,0ZM478.6,18.53,430.13,67,381.65,18.53ZM339,18.53,290.47,67,242,18.53ZM305,107.78a9.26,9.26,0,1,0,13.1-13.1L303.57,80.11l56.72-56.73L487.73,150.82,431,207.54l-91.87-91.87A9.27,9.27,0,0,0,326,128.78l22,22-56.72,56.72L163.92,80.11l56.72-56.73ZM278.26,220.64,150.82,348.08,94.09,291.36,221.53,163.92Zm-79-202.11L150.82,67,102.34,18.53Zm-180.76,0H59.64L18.53,59.64ZM24.27,80.1,81,23.38,208.43,150.82,151.7,207.54ZM18.53,227.25l.06-.06,63.28-63.27,56.73,56.72L18.53,340.72Zm0,154.4L68.77,431.9,18.53,482.13ZM33.39,493.47,81.88,445l48.47,48.47ZM24.27,361.19,81,304.46,208.43,431.89,151.7,488.62ZM173.05,493.47,221.53,445,270,493.47Zm-9.13-132.29,56.73-56.72L348.08,431.89l-56.72,56.73ZM312.71,493.47,361.18,445l48.48,48.48Zm-9.14-132.29,18.82-18.82a9.26,9.26,0,1,0-13.1-13.1l-18.82,18.82-56.73-56.72L361.18,163.92l56.73,56.73-90.09,90.08a9.27,9.27,0,0,0,13.1,13.11l19.38-19.38L487.73,431.9,431,488.62Zm189.9,132.29H452.36l41.11-41.11v41.11Zm0-82-50.24-50.24,50.24-50.26ZM493.4,284.8l-63.27,63.29L373.4,291.36,493.47,171.29V284.74h0Zm.07-154.46L443.23,80.1l50.24-50.24Z" transform="translate(0)"/></svg>