<?xml version="1.0" encoding="utf-8"?>
<!-- Generator: Adobe Illustrator 24.2.1, SVG Export Plug-In . SVG Version: 6.00 Build 0)  -->
<svg version="1.1" id="Capa_1" xmlns="http://www.w3.org/2000/svg" xmlns:xlink="http://www.w3.org/1999/xlink" x="0px" y="0px"
	 viewBox="0 0 512 512" style="enable-background:new 0 0 512 512;" xml:space="preserve">
<style type="text/css">
	.st0{fill:#a58a7c;}
</style>
<path class="st0" d="M89.1,477c-10.9,0-19.9-8.8-20.6-20.1l0-0.3l-37-179.3v-0.9l0-0.3l0.1-4.1H23c-8.5,0-15.5-7-15.5-15.5v-44
	c0-8.5,7-15.5,15.5-15.5h73.7l-3.8-6.1c-5.1-8.1-7.7-17.5-7.7-27.4c0-12,4-23.5,11.2-32.3l2.6-3.1l-3.2-2.5
	c-6.6-5.2-10.6-13.8-10.6-22.8c0-6.3,1.8-12.2,5.3-17.1l1.6-2.3l-1.6-2.3c-3.5-4.9-5.3-10.9-5.3-17.1c0-14.1,9.5-26,22-27.7l0.1,0
	l0.1,0c0.5-0.1,1.1-0.2,1.7-0.2h277c23,0,41.7,21.3,41.7,47.4c0,12-4,23.4-11.2,32.2l-2.6,3.1l3.2,2.5c6.6,5.2,10.6,13.7,10.6,22.7
	c0,6.3-1.8,12.2-5.3,17.1l-1.6,2.3l1.6,2.3c3.5,4.9,5.3,10.9,5.3,17.1c0,3.1-0.4,6.1-1.3,9l-1.6,5.2H490c8.5,0,15.5,7,15.5,15.5v44
	c0,8.5-7,15.5-15.5,15.5h-8.6l0.1,4.3l0,0.9l-34.6,179.3l0,0.3c-0.6,11.3-9.6,20.2-20.6,20.2H89.1z M355.1,460h73.5l1-2.5
	c0.3-0.6,0.4-1.3,0.4-1.9v-0.8l9.1-47h-76.1L355.1,460z M265,460h72.9l7.8-52.2H265V460z M175.9,460H248v-52.2h-79.2L175.9,460z
	 M85.5,455.6c0,0.7,0.1,1.3,0.4,1.9l1,2.4h71.9l-7.1-52.2H75.8l9.7,46.9V455.6z M365.4,390.8h76.9l10.1-52.4h-79.2L365.4,390.8z
	 M265,390.8h83.2l7.8-52.4h-91V390.8z M166.5,390.8H248v-52.4h-88.7L166.5,390.8z M72.3,390.8h77l-7.2-52.4H61.5L72.3,390.8z
	 M375.8,321.4h79.9l9.5-49.4h-82.1L375.8,321.4z M265,321.4h93.6L366,272H265V321.4z M157,321.4h91V272h-97.8L157,321.4z M58,321.4
	h81.9l-6.8-49.4H47.8L58,321.4z M24.5,255h464v-41h-464V255z M126.9,133.1c-13.4,0-24.7,13.9-24.7,30.4s11.3,30.4,24.7,30.4h274.8
	l0.2,0c0.3,0,0.6,0,0.9,0c4.4,0,8.1-5,8.1-10.9s-3.7-10.9-8.1-10.9c-0.3,0-0.6,0-0.9,0l-0.2,0H139.8c-4.7,0-8.5-3.8-8.5-8.5
	s3.8-8.5,8.5-8.5h263c4.4,0,8.1-5,8.1-10.9s-3.7-10.9-8.1-10.9H126.9z M111.1,91.8c-0.3,0-0.6,0-0.9,0c-4.4,0-8.1,5-8.1,10.9
	s3.7,10.9,8.1,10.9c0.3,0,0.6,0,0.9,0l0.2,0h274.8c13.4,0,24.7-13.9,24.7-30.4S399.5,53,386.1,53H110.2c-4.4,0-8.1,5-8.1,10.9
	s3.7,10.9,8.1,10.9h263c4.7,0,8.5,3.8,8.5,8.5s-3.8,8.5-8.5,8.5H111.3L111.1,91.8z"/>
</svg>
