<svg id="Capa_1" data-name="Capa 1" xmlns="http://www.w3.org/2000/svg" viewBox="0 0 519.99 443.34"><defs><style>.cls-1{fill:#a58a7c;}.cls-2{fill:none;stroke:#a58a7c;stroke-linecap:round;stroke-linejoin:round;stroke-width:20px;}</style></defs><path class="cls-1" d="M444.06,482V460.7H288.65V482H264.71V460.7H234.17a12,12,0,0,1-12-12V402.06c0-7.94-2.3-14.76-6.48-19.19a53.88,53.88,0,0,1-14.78-37.09,54.43,54.43,0,0,1,19.2-41.52,53.56,53.56,0,0,1,24.41-11.53c5.13-36.3,36.37-62.55,74.64-62.55h94.33c38.27,0,69.51,26.24,74.64,62.54a53.28,53.28,0,0,1,24.41,11.55,54.23,54.23,0,0,1,4.43,78.6c-4.19,4.43-6.49,11.25-6.49,19.19v46.67a12,12,0,0,1-12,12H468V482Zm42.51-45.2v-34.7c0-14.06,4.62-26.71,13-35.61a30,30,0,0,0,8.25-20.67,30.52,30.52,0,0,0-10.77-23.28,30,30,0,0,0-19.69-7.28,32.86,32.86,0,0,0-5.3.44c-14.44,2.35-25.32,16.27-25.32,32.39v57.52H286V348.05c0-16.12-10.89-30-25.33-32.39a33.62,33.62,0,0,0-5.19-.41,30.38,30.38,0,0,0-22.31,51.2c8.38,8.9,13,21.55,13,35.61v34.7ZM422.8,381.63V348.05c0-26.07,17.32-49,41.37-55-4.7-23.35-24.9-38.94-50.65-38.94H319.19c-25.75,0-45.94,15.6-50.65,38.94,24,6,41.37,28.93,41.37,55v33.58Z" transform="translate(-11.78 -38.62)"/><path class="cls-1" d="M479.09,363a11.87,11.87,0,0,1-8.47-3.51,12,12,0,1,1,16.93,0A11.86,11.86,0,0,1,479.09,363Z" transform="translate(-11.78 -38.62)"/><path class="cls-1" d="M256.9,363a11.84,11.84,0,0,1-8.46-3.51,12,12,0,1,1,16.92,0A11.84,11.84,0,0,1,256.9,363Z" transform="translate(-11.78 -38.62)"/><path class="cls-1" d="M16.27,165.55a15.19,15.19,0,0,1-4.49-10.83V73.06A15.33,15.33,0,0,1,27.11,57.74h11.8V54A15.34,15.34,0,0,1,54.23,38.62h31.3A15.33,15.33,0,0,1,100.86,54V85.71H139.1V54a15.34,15.34,0,0,1,15.33-15.33h31.3A15.33,15.33,0,0,1,201.05,54v3.79h11.8a15.33,15.33,0,0,1,15.33,15.32v81.66a15.35,15.35,0,0,1-15.33,15.33h-11.8v3.79a15.33,15.33,0,0,1-15.32,15.32h-31.3a15.33,15.33,0,0,1-15.33-15.32V142.07H100.86v31.77a15.33,15.33,0,0,1-15.33,15.32H54.23a15.33,15.33,0,0,1-15.32-15.32v-3.79H27.11A15.24,15.24,0,0,1,16.27,165.55ZM32.7,149.12h6.21V78.66H32.7Zm27.13,19.12H79.94V59.54H59.83Zm41-47.09H139.1V106.63H100.86ZM160,168.24h20.11V59.54H160Zm41-19.12h6.21V78.66h-6.21Z" transform="translate(-11.78 -38.62)"/><line class="cls-2" x1="50.35" y1="353.72" x2="340.61" y2="63.46"/></svg>