<?xml version="1.0" encoding="utf-8"?>
<!-- Generator: Adobe Illustrator 24.2.1, SVG Export Plug-In . SVG Version: 6.00 Build 0)  -->
<svg version="1.1" id="Capa_1" xmlns="http://www.w3.org/2000/svg" xmlns:xlink="http://www.w3.org/1999/xlink" x="0px" y="0px"
	 viewBox="0 0 512 512" style="enable-background:new 0 0 512 512;" xml:space="preserve">
<style type="text/css">
	.st0{fill:#a58a7c}
</style>
<path class="st0" d="M41.3,504.4V7.6h429.3v496.9H41.3z M57.3,488.4h397.3V23.6H57.3v74.7H100V68.9h312v374.2H100V412H57.3V488.4z
	 M325.4,274.9l3.5,1.1c16.8,5.2,28.6,21.1,28.6,38.7v112.4H396V205.8H116v221.3h41l-0.9-112.5c0-17.8,12-33.8,29.2-38.8l3.6-1v-28.5
	h16v28.6l3.5,1.1c16.8,5.2,28.6,21.1,28.6,38.7v112.4h40.6l-0.9-112.5c0-17.8,12-33.8,29.2-38.8l3.6-1v-28.5h16V274.9z M317.1,290.2
	c-13.4,0-24.4,10.9-24.4,24.4l0.9,112.5h48V314.7C341.5,301.2,330.6,290.2,317.1,290.2z M196.6,290.2c-13.4,0-24.4,10.9-24.4,24.4
	l0.9,112.5h48V314.7C221,301.2,210,290.2,196.6,290.2z M57.3,396H100V114.2H57.3V396z M317.1,124.9c22.1,0,40,17.9,40,40
	c0,6.2-1.4,12.1-4.1,17.7l-3.6,7.2H396V84.9H116v104.9h48.6l-3.6-7.2c-2.7-5.5-4.1-11.5-4.1-17.7c0-22.1,17.9-40,40-40
	s40,17.9,40,40c0,6.2-1.4,12.1-4.1,17.7l-3.6,7.2h55.6l-3.6-7.2c-2.7-5.5-4.1-11.5-4.1-17.7C277.1,142.8,295,124.9,317.1,124.9z
	 M317.1,140.9c-13.2,0-24,10.8-24,24c0,13.2,10.8,24,24,24s24-10.8,24-24C341.1,151.7,330.3,140.9,317.1,140.9z M196.9,140.9
	c-13.2,0-24,10.8-24,24c0,13.2,10.8,24,24,24s24-10.8,24-24C220.9,151.7,210.1,140.9,196.9,140.9z"/>
</svg>
